M48
;GenerationSoftware,Autodesk,EAGLE,9.6.2*%
;CreationDate,2020-08-26T06:09:15Z*%
FMAT,2
ICI,OFF
METRIC,TZ,000.000
T2C0.300
T1C1.016
%
G90
M71
T1
X9597Y2021
X4510Y19800
X1970Y19800
X7050Y19800
X9590Y19800
X12130Y19800
X14670Y19800
X17210Y19800
X19750Y19800
X22290Y19800
X24830Y19800
X4517Y2021
X1977Y2021
X7057Y2021
X12137Y2021
X14677Y2021
X17217Y2021
X19757Y2021
X22297Y2021
X24837Y2021
T2
X10829Y14407
X11129Y7407
X9629Y16007
X15254Y15282
X12929Y12107
X13929Y12107
X7729Y16407
X12929Y11107
X13929Y11107
X14929Y11107
X12929Y10107
X13929Y10107
X14929Y10107
X6729Y8307
X4629Y15507
X7329Y13107
X16329Y17332
X20129Y13532
X20029Y12407
X21179Y14057
X19529Y17632
X17929Y17332
X5729Y16507
X11129Y6407
X20629Y9207
X20129Y11007
X14929Y12107
X11629Y16607
X9629Y17207
X22029Y17407
X17929Y8507
X20629Y6407
X17829Y6407
M30