G04 EAGLE Gerber RS-274X export*
G75*
%MOMM*%
%FSLAX34Y34*%
%LPD*%
%INSilkscreen Top*%
%IPPOS*%
%AMOC8*
5,1,8,0,0,1.08239X$1,22.5*%
G01*
%ADD10C,0.025400*%
%ADD11C,0.076200*%
%ADD12C,0.200000*%
%ADD13C,0.050800*%
%ADD14C,0.508000*%
%ADD15C,0.127000*%
%ADD16C,0.100000*%
%ADD17C,0.101600*%
%ADD18C,0.254000*%
%ADD19C,0.177800*%


D10*
X40707Y178095D02*
X40707Y181908D01*
X42614Y181908D01*
X43249Y181273D01*
X43249Y180002D01*
X42614Y179366D01*
X40707Y179366D01*
X44449Y178731D02*
X44449Y181273D01*
X45085Y181908D01*
X46356Y181908D01*
X46992Y181273D01*
X46992Y178731D01*
X46356Y178095D01*
X45085Y178095D01*
X44449Y178731D01*
X46992Y181273D01*
X48191Y178731D02*
X48191Y178095D01*
X48191Y178731D02*
X48827Y178731D01*
X48827Y178095D01*
X48191Y178095D01*
X50062Y178731D02*
X50062Y181273D01*
X50698Y181908D01*
X51969Y181908D01*
X52605Y181273D01*
X52605Y178731D01*
X51969Y178095D01*
X50698Y178095D01*
X50062Y178731D01*
X52605Y181273D01*
X53805Y178731D02*
X54440Y178095D01*
X55711Y178095D01*
X56347Y178731D01*
X56347Y181273D01*
X55711Y181908D01*
X54440Y181908D01*
X53805Y181273D01*
X53805Y180637D01*
X54440Y180002D01*
X56347Y180002D01*
X65707Y178095D02*
X65707Y181908D01*
X67614Y181908D01*
X68249Y181273D01*
X68249Y180002D01*
X67614Y179366D01*
X65707Y179366D01*
X69449Y178731D02*
X69449Y181273D01*
X70085Y181908D01*
X71356Y181908D01*
X71992Y181273D01*
X71992Y178731D01*
X71356Y178095D01*
X70085Y178095D01*
X69449Y178731D01*
X71992Y181273D01*
X73191Y178731D02*
X73191Y178095D01*
X73191Y178731D02*
X73827Y178731D01*
X73827Y178095D01*
X73191Y178095D01*
X75062Y178731D02*
X75062Y181273D01*
X75698Y181908D01*
X76969Y181908D01*
X77605Y181273D01*
X77605Y178731D01*
X76969Y178095D01*
X75698Y178095D01*
X75062Y178731D01*
X77605Y181273D01*
X80076Y181273D02*
X81347Y181908D01*
X80076Y181273D02*
X78805Y180002D01*
X78805Y178731D01*
X79440Y178095D01*
X80711Y178095D01*
X81347Y178731D01*
X81347Y179366D01*
X80711Y180002D01*
X78805Y180002D01*
X90707Y178095D02*
X90707Y181908D01*
X92614Y181908D01*
X93249Y181273D01*
X93249Y180002D01*
X92614Y179366D01*
X90707Y179366D01*
X94449Y178731D02*
X94449Y181273D01*
X95085Y181908D01*
X96356Y181908D01*
X96992Y181273D01*
X96992Y178731D01*
X96356Y178095D01*
X95085Y178095D01*
X94449Y178731D01*
X96992Y181273D01*
X98191Y178731D02*
X98191Y178095D01*
X98191Y178731D02*
X98827Y178731D01*
X98827Y178095D01*
X98191Y178095D01*
X100062Y178731D02*
X100062Y181273D01*
X100698Y181908D01*
X101969Y181908D01*
X102605Y181273D01*
X102605Y178731D01*
X101969Y178095D01*
X100698Y178095D01*
X100062Y178731D01*
X102605Y181273D01*
X103805Y181908D02*
X106347Y181908D01*
X103805Y181908D02*
X103805Y180002D01*
X105076Y180637D01*
X105711Y180637D01*
X106347Y180002D01*
X106347Y178731D01*
X105711Y178095D01*
X104440Y178095D01*
X103805Y178731D01*
X117707Y178095D02*
X117707Y181908D01*
X119614Y181908D01*
X120249Y181273D01*
X120249Y180002D01*
X119614Y179366D01*
X117707Y179366D01*
X121449Y178731D02*
X121449Y181273D01*
X122085Y181908D01*
X123356Y181908D01*
X123992Y181273D01*
X123992Y178731D01*
X123356Y178095D01*
X122085Y178095D01*
X121449Y178731D01*
X123992Y181273D01*
X125191Y178731D02*
X125191Y178095D01*
X125191Y178731D02*
X125827Y178731D01*
X125827Y178095D01*
X125191Y178095D01*
X127062Y178731D02*
X127062Y181273D01*
X127698Y181908D01*
X128969Y181908D01*
X129605Y181273D01*
X129605Y178731D01*
X128969Y178095D01*
X127698Y178095D01*
X127062Y178731D01*
X129605Y181273D01*
X132711Y181908D02*
X132711Y178095D01*
X130805Y180002D02*
X132711Y181908D01*
X133347Y180002D02*
X130805Y180002D01*
X142707Y178095D02*
X142707Y181908D01*
X144614Y181908D01*
X145249Y181273D01*
X145249Y180002D01*
X144614Y179366D01*
X142707Y179366D01*
X146449Y178731D02*
X146449Y181273D01*
X147085Y181908D01*
X148356Y181908D01*
X148992Y181273D01*
X148992Y178731D01*
X148356Y178095D01*
X147085Y178095D01*
X146449Y178731D01*
X148992Y181273D01*
X150191Y178731D02*
X150191Y178095D01*
X150191Y178731D02*
X150827Y178731D01*
X150827Y178095D01*
X150191Y178095D01*
X152062Y181273D02*
X152698Y181908D01*
X153969Y181908D01*
X154605Y181273D01*
X154605Y180637D01*
X153969Y180002D01*
X153334Y180002D01*
X153969Y180002D02*
X154605Y179366D01*
X154605Y178731D01*
X153969Y178095D01*
X152698Y178095D01*
X152062Y178731D01*
X155805Y178731D02*
X155805Y181273D01*
X156440Y181908D01*
X157711Y181908D01*
X158347Y181273D01*
X158347Y178731D01*
X157711Y178095D01*
X156440Y178095D01*
X155805Y178731D01*
X158347Y181273D01*
X168707Y181908D02*
X168707Y178095D01*
X168707Y181908D02*
X170614Y181908D01*
X171249Y181273D01*
X171249Y180002D01*
X170614Y179366D01*
X168707Y179366D01*
X172449Y178731D02*
X172449Y181273D01*
X173085Y181908D01*
X174356Y181908D01*
X174992Y181273D01*
X174992Y178731D01*
X174356Y178095D01*
X173085Y178095D01*
X172449Y178731D01*
X174992Y181273D01*
X176191Y178731D02*
X176191Y178095D01*
X176191Y178731D02*
X176827Y178731D01*
X176827Y178095D01*
X176191Y178095D01*
X178062Y178095D02*
X180605Y178095D01*
X180605Y180637D02*
X178062Y178095D01*
X180605Y180637D02*
X180605Y181273D01*
X179969Y181908D01*
X178698Y181908D01*
X178062Y181273D01*
X181805Y181273D02*
X182440Y181908D01*
X183711Y181908D01*
X184347Y181273D01*
X184347Y180637D01*
X183711Y180002D01*
X184347Y179366D01*
X184347Y178731D01*
X183711Y178095D01*
X182440Y178095D01*
X181805Y178731D01*
X181805Y179366D01*
X182440Y180002D01*
X181805Y180637D01*
X181805Y181273D01*
X182440Y180002D02*
X183711Y180002D01*
X193707Y178095D02*
X193707Y181908D01*
X195614Y181908D01*
X196249Y181273D01*
X196249Y180002D01*
X195614Y179366D01*
X193707Y179366D01*
X197449Y178731D02*
X197449Y181273D01*
X198085Y181908D01*
X199356Y181908D01*
X199992Y181273D01*
X199992Y178731D01*
X199356Y178095D01*
X198085Y178095D01*
X197449Y178731D01*
X199992Y181273D01*
X201191Y178731D02*
X201191Y178095D01*
X201191Y178731D02*
X201827Y178731D01*
X201827Y178095D01*
X201191Y178095D01*
X203062Y178095D02*
X205605Y178095D01*
X205605Y180637D02*
X203062Y178095D01*
X205605Y180637D02*
X205605Y181273D01*
X204969Y181908D01*
X203698Y181908D01*
X203062Y181273D01*
X206805Y181908D02*
X209347Y181908D01*
X206805Y181908D02*
X206805Y180002D01*
X208076Y180637D01*
X208711Y180637D01*
X209347Y180002D01*
X209347Y178731D01*
X208711Y178095D01*
X207440Y178095D01*
X206805Y178731D01*
X222138Y179366D02*
X222138Y181908D01*
X222138Y179366D02*
X223409Y178095D01*
X224680Y179366D01*
X224680Y181908D01*
X225880Y178095D02*
X227151Y178095D01*
X226515Y178095D02*
X226515Y181908D01*
X225880Y181908D02*
X227151Y181908D01*
X228374Y181908D02*
X228374Y178095D01*
X230917Y178095D02*
X228374Y181908D01*
X230917Y181908D02*
X230917Y178095D01*
X245421Y181908D02*
X246056Y181273D01*
X245421Y181908D02*
X244149Y181908D01*
X243514Y181273D01*
X243514Y178731D01*
X244149Y178095D01*
X245421Y178095D01*
X246056Y178731D01*
X246056Y180002D01*
X244785Y180002D01*
X247256Y181908D02*
X247256Y178095D01*
X249798Y178095D02*
X247256Y181908D01*
X249798Y181908D02*
X249798Y178095D01*
X250998Y178095D02*
X250998Y181908D01*
X250998Y178095D02*
X252905Y178095D01*
X253540Y178731D01*
X253540Y181273D01*
X252905Y181908D01*
X250998Y181908D01*
X221421Y37908D02*
X222056Y37273D01*
X221421Y37908D02*
X220149Y37908D01*
X219514Y37273D01*
X219514Y34731D01*
X220149Y34095D01*
X221421Y34095D01*
X222056Y34731D01*
X222056Y36002D01*
X220785Y36002D01*
X223256Y37908D02*
X223256Y34095D01*
X225798Y34095D02*
X223256Y37908D01*
X225798Y37908D02*
X225798Y34095D01*
X226998Y34095D02*
X226998Y37908D01*
X226998Y34095D02*
X228905Y34095D01*
X229540Y34731D01*
X229540Y37273D01*
X228905Y37908D01*
X226998Y37908D01*
X193938Y38273D02*
X193302Y38908D01*
X192031Y38908D01*
X191395Y38273D01*
X191395Y37637D01*
X192031Y37002D01*
X193302Y37002D01*
X193938Y36366D01*
X193938Y35731D01*
X193302Y35095D01*
X192031Y35095D01*
X191395Y35731D01*
X195138Y35095D02*
X195138Y38908D01*
X196409Y36366D02*
X195138Y35095D01*
X196409Y36366D02*
X197680Y35095D01*
X197680Y38908D01*
X198880Y38908D02*
X198880Y35095D01*
X200786Y35095D01*
X201422Y35731D01*
X201422Y38273D01*
X200786Y38908D01*
X198880Y38908D01*
X202622Y35095D02*
X203893Y35095D01*
X203257Y35095D02*
X203257Y38908D01*
X202622Y38908D02*
X203893Y38908D01*
X205752Y38908D02*
X207023Y38908D01*
X205752Y38908D02*
X205116Y38273D01*
X205116Y35731D01*
X205752Y35095D01*
X207023Y35095D01*
X207659Y35731D01*
X207659Y38273D01*
X207023Y38908D01*
X165443Y38273D02*
X164807Y38908D01*
X163536Y38908D01*
X162901Y38273D01*
X162901Y37637D01*
X163536Y37002D01*
X164807Y37002D01*
X165443Y36366D01*
X165443Y35731D01*
X164807Y35095D01*
X163536Y35095D01*
X162901Y35731D01*
X166643Y35095D02*
X166643Y38908D01*
X167914Y36366D02*
X166643Y35095D01*
X167914Y36366D02*
X169185Y35095D01*
X169185Y38908D01*
X170385Y38908D02*
X170385Y35095D01*
X172292Y35095D01*
X172927Y35731D01*
X172927Y38273D01*
X172292Y38908D01*
X170385Y38908D01*
X176034Y38908D02*
X176669Y38273D01*
X176034Y38908D02*
X174762Y38908D01*
X174127Y38273D01*
X174127Y35731D01*
X174762Y35095D01*
X176034Y35095D01*
X176669Y35731D01*
X177869Y35095D02*
X177869Y38908D01*
X177869Y35095D02*
X180411Y35095D01*
X181611Y35095D02*
X181611Y38908D01*
X181611Y36366D02*
X184153Y38908D01*
X182247Y37002D02*
X184153Y35095D01*
X139836Y42143D02*
X139836Y45956D01*
X141743Y45956D01*
X142378Y45321D01*
X142378Y44050D01*
X141743Y43414D01*
X139836Y43414D01*
X143578Y42779D02*
X143578Y45321D01*
X144214Y45956D01*
X145485Y45956D01*
X146121Y45321D01*
X146121Y42779D01*
X145485Y42143D01*
X144214Y42143D01*
X143578Y42779D01*
X146121Y45321D01*
X147320Y42779D02*
X147320Y42143D01*
X147320Y42779D02*
X147956Y42779D01*
X147956Y42143D01*
X147320Y42143D01*
X149191Y42143D02*
X151734Y42143D01*
X151734Y44685D02*
X149191Y42143D01*
X151734Y44685D02*
X151734Y45321D01*
X151098Y45956D01*
X149827Y45956D01*
X149191Y45321D01*
X152934Y44685D02*
X154205Y45956D01*
X154205Y42143D01*
X152934Y42143D02*
X155476Y42143D01*
X156676Y42143D02*
X159218Y45956D01*
X144514Y39860D02*
X144514Y36047D01*
X144514Y39860D02*
X146421Y39860D01*
X147056Y39225D01*
X147056Y37954D01*
X146421Y37318D01*
X144514Y37318D01*
X145785Y37318D02*
X147056Y36047D01*
X150798Y39225D02*
X150163Y39860D01*
X148891Y39860D01*
X148256Y39225D01*
X148256Y38589D01*
X148891Y37954D01*
X150163Y37954D01*
X150798Y37318D01*
X150798Y36683D01*
X150163Y36047D01*
X148891Y36047D01*
X148256Y36683D01*
X153269Y36047D02*
X153269Y39860D01*
X151998Y39860D02*
X154540Y39860D01*
X86836Y42143D02*
X86836Y45956D01*
X88743Y45956D01*
X89378Y45321D01*
X89378Y44050D01*
X88743Y43414D01*
X86836Y43414D01*
X90578Y42779D02*
X90578Y45321D01*
X91214Y45956D01*
X92485Y45956D01*
X93121Y45321D01*
X93121Y42779D01*
X92485Y42143D01*
X91214Y42143D01*
X90578Y42779D01*
X93121Y45321D01*
X94320Y42779D02*
X94320Y42143D01*
X94320Y42779D02*
X94956Y42779D01*
X94956Y42143D01*
X94320Y42143D01*
X96191Y44685D02*
X97463Y45956D01*
X97463Y42143D01*
X98734Y42143D02*
X96191Y42143D01*
X99934Y45321D02*
X100569Y45956D01*
X101840Y45956D01*
X102476Y45321D01*
X102476Y44685D01*
X101840Y44050D01*
X102476Y43414D01*
X102476Y42779D01*
X101840Y42143D01*
X100569Y42143D01*
X99934Y42779D01*
X99934Y43414D01*
X100569Y44050D01*
X99934Y44685D01*
X99934Y45321D01*
X100569Y44050D02*
X101840Y44050D01*
X103676Y42143D02*
X106218Y45956D01*
X94056Y39225D02*
X93421Y39860D01*
X92149Y39860D01*
X91514Y39225D01*
X91514Y38589D01*
X92149Y37954D01*
X93421Y37954D01*
X94056Y37318D01*
X94056Y36683D01*
X93421Y36047D01*
X92149Y36047D01*
X91514Y36683D01*
X95256Y36047D02*
X95256Y39860D01*
X96527Y37318D02*
X95256Y36047D01*
X96527Y37318D02*
X97798Y36047D01*
X97798Y39860D01*
X99634Y39860D02*
X100905Y39860D01*
X99634Y39860D02*
X98998Y39225D01*
X98998Y36683D01*
X99634Y36047D01*
X100905Y36047D01*
X101540Y36683D01*
X101540Y39225D01*
X100905Y39860D01*
X114707Y38908D02*
X114707Y35095D01*
X114707Y38908D02*
X116614Y38908D01*
X117249Y38273D01*
X117249Y37002D01*
X116614Y36366D01*
X114707Y36366D01*
X118449Y35731D02*
X118449Y38273D01*
X119085Y38908D01*
X120356Y38908D01*
X120992Y38273D01*
X120992Y35731D01*
X120356Y35095D01*
X119085Y35095D01*
X118449Y35731D01*
X120992Y38273D01*
X122191Y35731D02*
X122191Y35095D01*
X122191Y35731D02*
X122827Y35731D01*
X122827Y35095D01*
X122191Y35095D01*
X124062Y35095D02*
X126605Y35095D01*
X126605Y37637D02*
X124062Y35095D01*
X126605Y37637D02*
X126605Y38273D01*
X125969Y38908D01*
X124698Y38908D01*
X124062Y38273D01*
X127805Y38273D02*
X127805Y35731D01*
X127805Y38273D02*
X128440Y38908D01*
X129711Y38908D01*
X130347Y38273D01*
X130347Y35731D01*
X129711Y35095D01*
X128440Y35095D01*
X127805Y35731D01*
X130347Y38273D01*
X63707Y39908D02*
X63707Y36095D01*
X63707Y39908D02*
X65614Y39908D01*
X66249Y39273D01*
X66249Y38002D01*
X65614Y37366D01*
X63707Y37366D01*
X67449Y36731D02*
X67449Y39273D01*
X68085Y39908D01*
X69356Y39908D01*
X69992Y39273D01*
X69992Y36731D01*
X69356Y36095D01*
X68085Y36095D01*
X67449Y36731D01*
X69992Y39273D01*
X71191Y36731D02*
X71191Y36095D01*
X71191Y36731D02*
X71827Y36731D01*
X71827Y36095D01*
X71191Y36095D01*
X73062Y38637D02*
X74334Y39908D01*
X74334Y36095D01*
X75605Y36095D02*
X73062Y36095D01*
X78076Y39273D02*
X79347Y39908D01*
X78076Y39273D02*
X76805Y38002D01*
X76805Y36731D01*
X77440Y36095D01*
X78711Y36095D01*
X79347Y36731D01*
X79347Y37366D01*
X78711Y38002D01*
X76805Y38002D01*
X38707Y36095D02*
X38707Y39908D01*
X40614Y39908D01*
X41249Y39273D01*
X41249Y38002D01*
X40614Y37366D01*
X38707Y37366D01*
X42449Y36731D02*
X42449Y39273D01*
X43085Y39908D01*
X44356Y39908D01*
X44992Y39273D01*
X44992Y36731D01*
X44356Y36095D01*
X43085Y36095D01*
X42449Y36731D01*
X44992Y39273D01*
X46191Y36731D02*
X46191Y36095D01*
X46191Y36731D02*
X46827Y36731D01*
X46827Y36095D01*
X46191Y36095D01*
X48062Y38637D02*
X49334Y39908D01*
X49334Y36095D01*
X50605Y36095D02*
X48062Y36095D01*
X51805Y39908D02*
X54347Y39908D01*
X51805Y39908D02*
X51805Y38002D01*
X53076Y38637D01*
X53711Y38637D01*
X54347Y38002D01*
X54347Y36731D01*
X53711Y36095D01*
X52440Y36095D01*
X51805Y36731D01*
X13707Y36095D02*
X13707Y39908D01*
X15614Y39908D01*
X16249Y39273D01*
X16249Y38002D01*
X15614Y37366D01*
X13707Y37366D01*
X17449Y36731D02*
X17449Y39273D01*
X18085Y39908D01*
X19356Y39908D01*
X19992Y39273D01*
X19992Y36731D01*
X19356Y36095D01*
X18085Y36095D01*
X17449Y36731D01*
X19992Y39273D01*
X21191Y36731D02*
X21191Y36095D01*
X21191Y36731D02*
X21827Y36731D01*
X21827Y36095D01*
X21191Y36095D01*
X23062Y38637D02*
X24334Y39908D01*
X24334Y36095D01*
X25605Y36095D02*
X23062Y36095D01*
X28711Y36095D02*
X28711Y39908D01*
X26805Y38002D01*
X29347Y38002D01*
X15707Y38095D02*
X15707Y41908D01*
X17614Y41908D01*
X18249Y41273D01*
X18249Y40002D01*
X17614Y39366D01*
X15707Y39366D01*
X19449Y38731D02*
X19449Y41273D01*
X20085Y41908D01*
X21356Y41908D01*
X21992Y41273D01*
X21992Y38731D01*
X21356Y38095D01*
X20085Y38095D01*
X19449Y38731D01*
X21992Y41273D01*
X23191Y38731D02*
X23191Y38095D01*
X23191Y38731D02*
X23827Y38731D01*
X23827Y38095D01*
X23191Y38095D01*
X25062Y40637D02*
X26334Y41908D01*
X26334Y38095D01*
X27605Y38095D02*
X25062Y38095D01*
X28805Y38095D02*
X31347Y38095D01*
X28805Y38095D02*
X31347Y40637D01*
X31347Y41273D01*
X30711Y41908D01*
X29440Y41908D01*
X28805Y41273D01*
X15707Y178095D02*
X15707Y181908D01*
X17614Y181908D01*
X18249Y181273D01*
X18249Y180002D01*
X17614Y179366D01*
X15707Y179366D01*
X19449Y178731D02*
X19449Y181273D01*
X20085Y181908D01*
X21356Y181908D01*
X21992Y181273D01*
X21992Y178731D01*
X21356Y178095D01*
X20085Y178095D01*
X19449Y178731D01*
X21992Y181273D01*
X23191Y178731D02*
X23191Y178095D01*
X23191Y178731D02*
X23827Y178731D01*
X23827Y178095D01*
X23191Y178095D01*
X25062Y180637D02*
X26334Y181908D01*
X26334Y178095D01*
X27605Y178095D02*
X25062Y178095D01*
X28805Y178731D02*
X28805Y181273D01*
X29440Y181908D01*
X30711Y181908D01*
X31347Y181273D01*
X31347Y178731D01*
X30711Y178095D01*
X29440Y178095D01*
X28805Y178731D01*
X31347Y181273D01*
D11*
X13683Y37034D02*
X6311Y37034D01*
X13683Y41949D01*
X6311Y41949D01*
X6311Y44518D02*
X13683Y44518D01*
X6311Y44518D02*
X6311Y48204D01*
X7539Y49433D01*
X9997Y49433D01*
X11226Y48204D01*
X11226Y44518D01*
X11226Y46976D02*
X13683Y49433D01*
X13683Y52002D02*
X6311Y52002D01*
X6311Y56917D01*
X9997Y54460D02*
X9997Y52002D01*
X6311Y59487D02*
X6311Y64401D01*
X6311Y59487D02*
X9997Y59487D01*
X8768Y61944D01*
X8768Y63173D01*
X9997Y64401D01*
X12454Y64401D01*
X13683Y63173D01*
X13683Y60715D01*
X12454Y59487D01*
X13683Y66971D02*
X13683Y71886D01*
X13683Y66971D02*
X8768Y71886D01*
X7539Y71886D01*
X6311Y70657D01*
X6311Y68199D01*
X7539Y66971D01*
X7539Y74455D02*
X6311Y75684D01*
X6311Y78141D01*
X7539Y79370D01*
X8768Y79370D01*
X9997Y78141D01*
X11226Y79370D01*
X12454Y79370D01*
X13683Y78141D01*
X13683Y75684D01*
X12454Y74455D01*
X11226Y74455D01*
X9997Y75684D01*
X8768Y74455D01*
X7539Y74455D01*
X9997Y75684D02*
X9997Y78141D01*
X8768Y81939D02*
X6311Y84397D01*
X13683Y84397D01*
X13683Y86854D02*
X13683Y81939D01*
X12454Y89423D02*
X7539Y89423D01*
X6311Y90652D01*
X6311Y93109D01*
X7539Y94338D01*
X12454Y94338D01*
X13683Y93109D01*
X13683Y90652D01*
X12454Y89423D01*
X7539Y94338D01*
X6311Y104392D02*
X13683Y104392D01*
X6311Y104392D02*
X6311Y108078D01*
X7539Y109306D01*
X8768Y109306D01*
X9997Y108078D01*
X11226Y109306D01*
X12454Y109306D01*
X13683Y108078D01*
X13683Y104392D01*
X9997Y104392D02*
X9997Y108078D01*
X8768Y111876D02*
X13683Y111876D01*
X11226Y111876D02*
X8768Y114333D01*
X8768Y115562D01*
X13683Y119341D02*
X13683Y121799D01*
X13683Y119341D02*
X12454Y118113D01*
X9997Y118113D01*
X8768Y119341D01*
X8768Y121799D01*
X9997Y123027D01*
X11226Y123027D01*
X11226Y118113D01*
X8768Y126825D02*
X8768Y129283D01*
X9997Y130512D01*
X13683Y130512D01*
X13683Y126825D01*
X12454Y125597D01*
X11226Y126825D01*
X11226Y130512D01*
X13683Y133081D02*
X6311Y133081D01*
X11226Y133081D02*
X13683Y136767D01*
X11226Y133081D02*
X8768Y136767D01*
X13683Y140546D02*
X13683Y143004D01*
X12454Y144232D01*
X9997Y144232D01*
X8768Y143004D01*
X8768Y140546D01*
X9997Y139318D01*
X12454Y139318D01*
X13683Y140546D01*
X12454Y146802D02*
X8768Y146802D01*
X12454Y146802D02*
X13683Y148030D01*
X13683Y151717D01*
X8768Y151717D01*
X7539Y155515D02*
X12454Y155515D01*
X13683Y156743D01*
X8768Y156743D02*
X8768Y154286D01*
X6311Y166760D02*
X11226Y166760D01*
X13683Y169217D01*
X11226Y171674D01*
X6311Y171674D01*
X13683Y174244D02*
X13683Y179159D01*
X13683Y174244D02*
X8768Y179159D01*
X7539Y179159D01*
X6311Y177930D01*
X6311Y175472D01*
X7539Y174244D01*
D12*
X218293Y170320D02*
X218295Y170383D01*
X218301Y170445D01*
X218311Y170507D01*
X218324Y170569D01*
X218342Y170629D01*
X218363Y170688D01*
X218388Y170746D01*
X218417Y170802D01*
X218449Y170856D01*
X218484Y170908D01*
X218522Y170957D01*
X218564Y171005D01*
X218608Y171049D01*
X218656Y171091D01*
X218705Y171129D01*
X218757Y171164D01*
X218811Y171196D01*
X218867Y171225D01*
X218925Y171250D01*
X218984Y171271D01*
X219044Y171289D01*
X219106Y171302D01*
X219168Y171312D01*
X219230Y171318D01*
X219293Y171320D01*
X219356Y171318D01*
X219418Y171312D01*
X219480Y171302D01*
X219542Y171289D01*
X219602Y171271D01*
X219661Y171250D01*
X219719Y171225D01*
X219775Y171196D01*
X219829Y171164D01*
X219881Y171129D01*
X219930Y171091D01*
X219978Y171049D01*
X220022Y171005D01*
X220064Y170957D01*
X220102Y170908D01*
X220137Y170856D01*
X220169Y170802D01*
X220198Y170746D01*
X220223Y170688D01*
X220244Y170629D01*
X220262Y170569D01*
X220275Y170507D01*
X220285Y170445D01*
X220291Y170383D01*
X220293Y170320D01*
X220291Y170257D01*
X220285Y170195D01*
X220275Y170133D01*
X220262Y170071D01*
X220244Y170011D01*
X220223Y169952D01*
X220198Y169894D01*
X220169Y169838D01*
X220137Y169784D01*
X220102Y169732D01*
X220064Y169683D01*
X220022Y169635D01*
X219978Y169591D01*
X219930Y169549D01*
X219881Y169511D01*
X219829Y169476D01*
X219775Y169444D01*
X219719Y169415D01*
X219661Y169390D01*
X219602Y169369D01*
X219542Y169351D01*
X219480Y169338D01*
X219418Y169328D01*
X219356Y169322D01*
X219293Y169320D01*
X219230Y169322D01*
X219168Y169328D01*
X219106Y169338D01*
X219044Y169351D01*
X218984Y169369D01*
X218925Y169390D01*
X218867Y169415D01*
X218811Y169444D01*
X218757Y169476D01*
X218705Y169511D01*
X218656Y169549D01*
X218608Y169591D01*
X218564Y169635D01*
X218522Y169683D01*
X218484Y169732D01*
X218449Y169784D01*
X218417Y169838D01*
X218388Y169894D01*
X218363Y169952D01*
X218342Y170011D01*
X218324Y170071D01*
X218311Y170133D01*
X218301Y170195D01*
X218295Y170257D01*
X218293Y170320D01*
D13*
X217547Y151071D02*
X221211Y145574D01*
X217547Y145574D02*
X221211Y151071D01*
X223072Y149238D02*
X224904Y151071D01*
X224904Y145574D01*
X223072Y145574D02*
X226736Y145574D01*
X207547Y104321D02*
X207547Y98824D01*
X211211Y98824D01*
X213072Y102488D02*
X214904Y104321D01*
X214904Y98824D01*
X213072Y98824D02*
X216736Y98824D01*
X173549Y146128D02*
X172633Y147044D01*
X170801Y147044D01*
X169885Y146128D01*
X169885Y142463D01*
X170801Y141547D01*
X172633Y141547D01*
X173549Y142463D01*
X175409Y141547D02*
X179074Y141547D01*
X179074Y145211D02*
X175409Y141547D01*
X179074Y145211D02*
X179074Y146128D01*
X178158Y147044D01*
X176325Y147044D01*
X175409Y146128D01*
X229633Y174044D02*
X230549Y173128D01*
X229633Y174044D02*
X227801Y174044D01*
X226885Y173128D01*
X226885Y169463D01*
X227801Y168547D01*
X229633Y168547D01*
X230549Y169463D01*
X232409Y172211D02*
X234242Y174044D01*
X234242Y168547D01*
X236074Y168547D02*
X232409Y168547D01*
X175072Y95458D02*
X175988Y94542D01*
X175072Y95458D02*
X173240Y95458D01*
X172324Y94542D01*
X172324Y90877D01*
X173240Y89961D01*
X175072Y89961D01*
X175988Y90877D01*
X177849Y94542D02*
X178765Y95458D01*
X180597Y95458D01*
X181513Y94542D01*
X181513Y93626D01*
X180597Y92709D01*
X179681Y92709D01*
X180597Y92709D02*
X181513Y91793D01*
X181513Y90877D01*
X180597Y89961D01*
X178765Y89961D01*
X177849Y90877D01*
X90211Y124905D02*
X89295Y125821D01*
X87463Y125821D01*
X86547Y124905D01*
X86547Y121240D01*
X87463Y120324D01*
X89295Y120324D01*
X90211Y121240D01*
X94820Y120324D02*
X94820Y125821D01*
X92072Y123072D01*
X95736Y123072D01*
X116932Y57794D02*
X117848Y56877D01*
X116932Y57794D02*
X115100Y57794D01*
X114184Y56877D01*
X114184Y53213D01*
X115100Y52297D01*
X116932Y52297D01*
X117848Y53213D01*
X119709Y57794D02*
X123373Y57794D01*
X119709Y57794D02*
X119709Y55045D01*
X121541Y55961D01*
X122457Y55961D01*
X123373Y55045D01*
X123373Y53213D01*
X122457Y52297D01*
X120625Y52297D01*
X119709Y53213D01*
X147549Y166128D02*
X146633Y167044D01*
X144801Y167044D01*
X143885Y166128D01*
X143885Y162463D01*
X144801Y161547D01*
X146633Y161547D01*
X147549Y162463D01*
X149409Y166128D02*
X150325Y167044D01*
X152158Y167044D01*
X153074Y166128D01*
X153074Y165211D01*
X152158Y164295D01*
X153074Y163379D01*
X153074Y162463D01*
X152158Y161547D01*
X150325Y161547D01*
X149409Y162463D01*
X149409Y163379D01*
X150325Y164295D01*
X149409Y165211D01*
X149409Y166128D01*
X150325Y164295D02*
X152158Y164295D01*
X190545Y118821D02*
X191461Y117905D01*
X190545Y118821D02*
X188713Y118821D01*
X187797Y117905D01*
X187797Y114240D01*
X188713Y113324D01*
X190545Y113324D01*
X191461Y114240D01*
X195154Y117905D02*
X196986Y118821D01*
X195154Y117905D02*
X193322Y116072D01*
X193322Y114240D01*
X194238Y113324D01*
X196070Y113324D01*
X196986Y114240D01*
X196986Y115156D01*
X196070Y116072D01*
X193322Y116072D01*
X193461Y146155D02*
X192545Y147071D01*
X190713Y147071D01*
X189797Y146155D01*
X189797Y142490D01*
X190713Y141574D01*
X192545Y141574D01*
X193461Y142490D01*
X195322Y147071D02*
X198986Y147071D01*
X198986Y146155D01*
X195322Y142490D01*
X195322Y141574D01*
X82162Y160905D02*
X81246Y161821D01*
X79414Y161821D01*
X78498Y160905D01*
X78498Y157240D01*
X79414Y156324D01*
X81246Y156324D01*
X82162Y157240D01*
X84022Y157240D02*
X84938Y156324D01*
X86771Y156324D01*
X87687Y157240D01*
X87687Y160905D01*
X86771Y161821D01*
X84938Y161821D01*
X84022Y160905D01*
X84022Y159988D01*
X84938Y159072D01*
X87687Y159072D01*
X107358Y158044D02*
X108274Y157128D01*
X107358Y158044D02*
X105526Y158044D01*
X104610Y157128D01*
X104610Y153463D01*
X105526Y152547D01*
X107358Y152547D01*
X108274Y153463D01*
X110135Y156211D02*
X111967Y158044D01*
X111967Y152547D01*
X110135Y152547D02*
X113799Y152547D01*
X115659Y153463D02*
X115659Y157128D01*
X116575Y158044D01*
X118408Y158044D01*
X119324Y157128D01*
X119324Y153463D01*
X118408Y152547D01*
X116575Y152547D01*
X115659Y153463D01*
X119324Y157128D01*
X31799Y106547D02*
X28135Y112044D01*
X31799Y112044D02*
X28135Y106547D01*
X33659Y106547D02*
X37324Y106547D01*
X37324Y110211D02*
X33659Y106547D01*
X37324Y110211D02*
X37324Y111128D01*
X36408Y112044D01*
X34575Y112044D01*
X33659Y111128D01*
X52637Y155905D02*
X51721Y156821D01*
X49889Y156821D01*
X48973Y155905D01*
X48973Y152240D01*
X49889Y151324D01*
X51721Y151324D01*
X52637Y152240D01*
X54498Y154988D02*
X56330Y156821D01*
X56330Y151324D01*
X54498Y151324D02*
X58162Y151324D01*
X60022Y154988D02*
X61854Y156821D01*
X61854Y151324D01*
X60022Y151324D02*
X63687Y151324D01*
X47709Y74681D02*
X48626Y73765D01*
X47709Y74681D02*
X45877Y74681D01*
X44961Y73765D01*
X44961Y70100D01*
X45877Y69184D01*
X47709Y69184D01*
X48626Y70100D01*
X50486Y72849D02*
X52318Y74681D01*
X52318Y69184D01*
X50486Y69184D02*
X54150Y69184D01*
X56011Y69184D02*
X59675Y69184D01*
X56011Y69184D02*
X59675Y72849D01*
X59675Y73765D01*
X58759Y74681D01*
X56927Y74681D01*
X56011Y73765D01*
D14*
X108293Y136070D03*
D15*
X112293Y90070D02*
X112293Y84070D01*
X118293Y84070D01*
X160293Y84070D02*
X166293Y84070D01*
X166293Y90070D01*
X166293Y132070D02*
X166293Y138070D01*
X160293Y138070D01*
X118293Y138070D02*
X112293Y138070D01*
X112293Y132070D01*
D11*
X153674Y81693D02*
X153674Y77325D01*
X154548Y76451D01*
X156295Y76451D01*
X157169Y77325D01*
X157169Y81693D01*
X159199Y79946D02*
X160946Y81693D01*
X160946Y76451D01*
X159199Y76451D02*
X162694Y76451D01*
D16*
X277427Y110439D02*
X277427Y122439D01*
X261427Y122439D02*
X261427Y110439D01*
D17*
X245681Y79381D02*
X245681Y71585D01*
X245681Y79381D02*
X249579Y83279D01*
X253477Y79381D01*
X253477Y71585D01*
X253477Y77432D02*
X245681Y77432D01*
X257375Y71585D02*
X257375Y83279D01*
X265171Y71585D01*
X265171Y83279D01*
X272967Y83279D02*
X272967Y71585D01*
X269069Y83279D02*
X276865Y83279D01*
X280763Y79381D02*
X284661Y83279D01*
X284661Y71585D01*
X280763Y71585D02*
X288559Y71585D01*
D18*
X261000Y185300D02*
X261000Y210700D01*
X32400Y210700D01*
X7000Y210700D01*
X7000Y185300D01*
X32400Y185300D01*
X261000Y185300D01*
X32400Y185300D02*
X32400Y210700D01*
D19*
X260879Y199777D02*
X262277Y198379D01*
X263675Y198379D01*
X265073Y199777D01*
X265073Y206768D01*
X263675Y206768D02*
X266471Y206768D01*
X274428Y206768D02*
X274428Y198379D01*
X270234Y202574D02*
X274428Y206768D01*
X275827Y202574D02*
X270234Y202574D01*
D18*
X261070Y32910D02*
X261070Y7510D01*
X261070Y32910D02*
X32470Y32910D01*
X7070Y32910D01*
X7070Y7510D01*
X32470Y7510D01*
X261070Y7510D01*
X32470Y7510D02*
X32470Y32910D01*
D19*
X258669Y12847D02*
X260067Y11449D01*
X261465Y11449D01*
X262863Y12847D01*
X262863Y19838D01*
X261465Y19838D02*
X264261Y19838D01*
X268024Y19838D02*
X273617Y19838D01*
X268024Y19838D02*
X268024Y15644D01*
X270820Y17042D01*
X272218Y17042D01*
X273617Y15644D01*
X273617Y12847D01*
X272218Y11449D01*
X269422Y11449D01*
X268024Y12847D01*
M02*
