G04 EAGLE Gerber RS-274X export*
G75*
%MOMM*%
%FSLAX34Y34*%
%LPD*%
%INSoldermask Bottom*%
%IPPOS*%
%AMOC8*
5,1,8,0,0,1.08239X$1,22.5*%
G01*
%ADD10C,1.011200*%
%ADD11P,2.144431X8X112.500000*%
%ADD12R,1.981200X1.981200*%
%ADD13C,0.909600*%


D10*
X129293Y121070D03*
X139293Y121070D03*
X149293Y121070D03*
X129293Y111070D03*
X139293Y111070D03*
X149293Y111070D03*
X129293Y101070D03*
X139293Y101070D03*
X149293Y101070D03*
D11*
X45100Y198000D03*
D12*
X19700Y198000D03*
D11*
X70500Y198000D03*
X95900Y198000D03*
X121300Y198000D03*
X146700Y198000D03*
X172100Y198000D03*
X197500Y198000D03*
X222900Y198000D03*
X248300Y198000D03*
X45170Y20210D03*
D12*
X19770Y20210D03*
D11*
X70570Y20210D03*
X95970Y20210D03*
X121370Y20210D03*
X146770Y20210D03*
X172170Y20210D03*
X197570Y20210D03*
X222970Y20210D03*
X248370Y20210D03*
D13*
X67293Y83070D03*
X46293Y155070D03*
X73293Y131070D03*
X163293Y173320D03*
X201293Y135320D03*
X200293Y124070D03*
X77293Y164070D03*
X211793Y140570D03*
X195293Y176320D03*
X179293Y173320D03*
X57293Y165070D03*
X111293Y64070D03*
X206293Y92070D03*
X201293Y110070D03*
X116293Y166070D03*
X96293Y172070D03*
X220293Y174070D03*
X179293Y85070D03*
X206293Y64070D03*
X178293Y64070D03*
X108293Y144070D03*
X111293Y74070D03*
X96293Y160070D03*
X152543Y152820D03*
M02*
