G04 EAGLE Gerber RS-274X export*
G75*
%MOMM*%
%FSLAX34Y34*%
%LPD*%
%INSolderpaste Top*%
%IPPOS*%
%AMOC8*
5,1,8,0,0,1.08239X$1,22.5*%
G01*
%ADD10R,0.950000X0.850000*%
%ADD11R,0.600000X0.600000*%
%ADD12R,1.050000X0.900000*%
%ADD13R,0.900000X1.050000*%
%ADD14R,1.800000X1.000000*%
%ADD15C,0.150000*%
%ADD16R,3.650000X3.650000*%
%ADD17R,1.700000X1.000000*%


D10*
X211543Y164070D03*
X197043Y164070D03*
X197043Y152570D03*
X211543Y152570D03*
D11*
X187793Y100570D03*
X198793Y100570D03*
X177293Y152820D03*
X177293Y163820D03*
X230293Y163820D03*
X230293Y152820D03*
X177293Y100570D03*
X177293Y111570D03*
X95793Y131070D03*
X84793Y131070D03*
X120043Y74570D03*
X120043Y63570D03*
X162293Y152820D03*
X162293Y163820D03*
X179043Y124070D03*
X190043Y124070D03*
X179043Y135320D03*
X190043Y135320D03*
D12*
X93293Y149070D03*
X77293Y149070D03*
D13*
X128293Y149070D03*
X128293Y165070D03*
D14*
X52293Y125570D03*
X52293Y100570D03*
D11*
X46793Y145070D03*
X57793Y145070D03*
X56207Y81930D03*
X45207Y81930D03*
D15*
X111293Y127820D02*
X111293Y129320D01*
X118293Y129320D01*
X118293Y127820D01*
X111293Y127820D01*
X111293Y129245D02*
X118293Y129245D01*
X118293Y124320D02*
X118293Y122820D01*
X111293Y122820D01*
X111293Y124320D01*
X118293Y124320D01*
X118293Y124245D02*
X111293Y124245D01*
X118293Y119320D02*
X118293Y117820D01*
X111293Y117820D01*
X111293Y119320D01*
X118293Y119320D01*
X118293Y119245D02*
X111293Y119245D01*
X118293Y114320D02*
X118293Y112820D01*
X111293Y112820D01*
X111293Y114320D01*
X118293Y114320D01*
X118293Y114245D02*
X111293Y114245D01*
X118293Y109320D02*
X118293Y107820D01*
X111293Y107820D01*
X111293Y109320D01*
X118293Y109320D01*
X118293Y109245D02*
X111293Y109245D01*
X118293Y104320D02*
X118293Y102820D01*
X111293Y102820D01*
X111293Y104320D01*
X118293Y104320D01*
X118293Y104245D02*
X111293Y104245D01*
X118293Y99320D02*
X118293Y97820D01*
X111293Y97820D01*
X111293Y99320D01*
X118293Y99320D01*
X118293Y99245D02*
X111293Y99245D01*
X118293Y94320D02*
X118293Y92820D01*
X111293Y92820D01*
X111293Y94320D01*
X118293Y94320D01*
X118293Y94245D02*
X111293Y94245D01*
X121043Y90070D02*
X122543Y90070D01*
X122543Y83070D01*
X121043Y83070D01*
X121043Y90070D01*
X121043Y84495D02*
X122543Y84495D01*
X122543Y85920D02*
X121043Y85920D01*
X121043Y87345D02*
X122543Y87345D01*
X122543Y88770D02*
X121043Y88770D01*
X126043Y90070D02*
X127543Y90070D01*
X127543Y83070D01*
X126043Y83070D01*
X126043Y90070D01*
X126043Y84495D02*
X127543Y84495D01*
X127543Y85920D02*
X126043Y85920D01*
X126043Y87345D02*
X127543Y87345D01*
X127543Y88770D02*
X126043Y88770D01*
X131043Y90070D02*
X132543Y90070D01*
X132543Y83070D01*
X131043Y83070D01*
X131043Y90070D01*
X131043Y84495D02*
X132543Y84495D01*
X132543Y85920D02*
X131043Y85920D01*
X131043Y87345D02*
X132543Y87345D01*
X132543Y88770D02*
X131043Y88770D01*
X136043Y90070D02*
X137543Y90070D01*
X137543Y83070D01*
X136043Y83070D01*
X136043Y90070D01*
X136043Y84495D02*
X137543Y84495D01*
X137543Y85920D02*
X136043Y85920D01*
X136043Y87345D02*
X137543Y87345D01*
X137543Y88770D02*
X136043Y88770D01*
X141043Y90070D02*
X142543Y90070D01*
X142543Y83070D01*
X141043Y83070D01*
X141043Y90070D01*
X141043Y84495D02*
X142543Y84495D01*
X142543Y85920D02*
X141043Y85920D01*
X141043Y87345D02*
X142543Y87345D01*
X142543Y88770D02*
X141043Y88770D01*
X146043Y90070D02*
X147543Y90070D01*
X147543Y83070D01*
X146043Y83070D01*
X146043Y90070D01*
X146043Y84495D02*
X147543Y84495D01*
X147543Y85920D02*
X146043Y85920D01*
X146043Y87345D02*
X147543Y87345D01*
X147543Y88770D02*
X146043Y88770D01*
X151043Y90070D02*
X152543Y90070D01*
X152543Y83070D01*
X151043Y83070D01*
X151043Y90070D01*
X151043Y84495D02*
X152543Y84495D01*
X152543Y85920D02*
X151043Y85920D01*
X151043Y87345D02*
X152543Y87345D01*
X152543Y88770D02*
X151043Y88770D01*
X156043Y90070D02*
X157543Y90070D01*
X157543Y83070D01*
X156043Y83070D01*
X156043Y90070D01*
X156043Y84495D02*
X157543Y84495D01*
X157543Y85920D02*
X156043Y85920D01*
X156043Y87345D02*
X157543Y87345D01*
X157543Y88770D02*
X156043Y88770D01*
X160293Y92820D02*
X160293Y94320D01*
X167293Y94320D01*
X167293Y92820D01*
X160293Y92820D01*
X160293Y94245D02*
X167293Y94245D01*
X160293Y97820D02*
X160293Y99320D01*
X167293Y99320D01*
X167293Y97820D01*
X160293Y97820D01*
X160293Y99245D02*
X167293Y99245D01*
X160293Y102820D02*
X160293Y104320D01*
X167293Y104320D01*
X167293Y102820D01*
X160293Y102820D01*
X160293Y104245D02*
X167293Y104245D01*
X160293Y107820D02*
X160293Y109320D01*
X167293Y109320D01*
X167293Y107820D01*
X160293Y107820D01*
X160293Y109245D02*
X167293Y109245D01*
X160293Y112820D02*
X160293Y114320D01*
X167293Y114320D01*
X167293Y112820D01*
X160293Y112820D01*
X160293Y114245D02*
X167293Y114245D01*
X160293Y117820D02*
X160293Y119320D01*
X167293Y119320D01*
X167293Y117820D01*
X160293Y117820D01*
X160293Y119245D02*
X167293Y119245D01*
X160293Y122820D02*
X160293Y124320D01*
X167293Y124320D01*
X167293Y122820D01*
X160293Y122820D01*
X160293Y124245D02*
X167293Y124245D01*
X160293Y127820D02*
X160293Y129320D01*
X167293Y129320D01*
X167293Y127820D01*
X160293Y127820D01*
X160293Y129245D02*
X167293Y129245D01*
X157543Y132070D02*
X156043Y132070D01*
X156043Y139070D01*
X157543Y139070D01*
X157543Y132070D01*
X157543Y133495D02*
X156043Y133495D01*
X156043Y134920D02*
X157543Y134920D01*
X157543Y136345D02*
X156043Y136345D01*
X156043Y137770D02*
X157543Y137770D01*
X152543Y132070D02*
X151043Y132070D01*
X151043Y139070D01*
X152543Y139070D01*
X152543Y132070D01*
X152543Y133495D02*
X151043Y133495D01*
X151043Y134920D02*
X152543Y134920D01*
X152543Y136345D02*
X151043Y136345D01*
X151043Y137770D02*
X152543Y137770D01*
X147543Y132070D02*
X146043Y132070D01*
X146043Y139070D01*
X147543Y139070D01*
X147543Y132070D01*
X147543Y133495D02*
X146043Y133495D01*
X146043Y134920D02*
X147543Y134920D01*
X147543Y136345D02*
X146043Y136345D01*
X146043Y137770D02*
X147543Y137770D01*
X142543Y132070D02*
X141043Y132070D01*
X141043Y139070D01*
X142543Y139070D01*
X142543Y132070D01*
X142543Y133495D02*
X141043Y133495D01*
X141043Y134920D02*
X142543Y134920D01*
X142543Y136345D02*
X141043Y136345D01*
X141043Y137770D02*
X142543Y137770D01*
X137543Y132070D02*
X136043Y132070D01*
X136043Y139070D01*
X137543Y139070D01*
X137543Y132070D01*
X137543Y133495D02*
X136043Y133495D01*
X136043Y134920D02*
X137543Y134920D01*
X137543Y136345D02*
X136043Y136345D01*
X136043Y137770D02*
X137543Y137770D01*
X132543Y132070D02*
X131043Y132070D01*
X131043Y139070D01*
X132543Y139070D01*
X132543Y132070D01*
X132543Y133495D02*
X131043Y133495D01*
X131043Y134920D02*
X132543Y134920D01*
X132543Y136345D02*
X131043Y136345D01*
X131043Y137770D02*
X132543Y137770D01*
X127543Y132070D02*
X126043Y132070D01*
X126043Y139070D01*
X127543Y139070D01*
X127543Y132070D01*
X127543Y133495D02*
X126043Y133495D01*
X126043Y134920D02*
X127543Y134920D01*
X127543Y136345D02*
X126043Y136345D01*
X126043Y137770D02*
X127543Y137770D01*
X122543Y132070D02*
X121043Y132070D01*
X121043Y139070D01*
X122543Y139070D01*
X122543Y132070D01*
X122543Y133495D02*
X121043Y133495D01*
X121043Y134920D02*
X122543Y134920D01*
X122543Y136345D02*
X121043Y136345D01*
X121043Y137770D02*
X122543Y137770D01*
D16*
X139293Y111070D03*
D17*
X269427Y130439D03*
X269427Y102439D03*
M02*
