G04 EAGLE Gerber RS-274X export*
G75*
%MOMM*%
%FSLAX34Y34*%
%LPD*%
%INSoldermask Top*%
%IPPOS*%
%AMOC8*
5,1,8,0,0,1.08239X$1,22.5*%
G01*
%ADD10R,1.153200X1.053200*%
%ADD11R,0.803200X0.803200*%
%ADD12R,1.253200X1.103200*%
%ADD13R,1.103200X1.253200*%
%ADD14R,2.003200X1.203200*%
%ADD15C,0.352238*%
%ADD16R,3.853200X3.853200*%
%ADD17C,1.011200*%
%ADD18R,1.903200X1.203200*%
%ADD19P,2.144431X8X112.500000*%
%ADD20R,1.981200X1.981200*%
%ADD21C,0.909600*%


D10*
X211543Y164070D03*
X197043Y164070D03*
X197043Y152570D03*
X211543Y152570D03*
D11*
X187793Y100570D03*
X198793Y100570D03*
X177293Y152820D03*
X177293Y163820D03*
X230293Y163820D03*
X230293Y152820D03*
X177293Y100570D03*
X177293Y111570D03*
X95793Y131070D03*
X84793Y131070D03*
X120043Y74570D03*
X120043Y63570D03*
X162293Y152820D03*
X162293Y163820D03*
X179043Y124070D03*
X190043Y124070D03*
X179043Y135320D03*
X190043Y135320D03*
D12*
X93293Y149070D03*
X77293Y149070D03*
D13*
X128293Y149070D03*
X128293Y165070D03*
D14*
X52293Y125570D03*
X52293Y100570D03*
D11*
X46793Y145070D03*
X57793Y145070D03*
X56207Y81930D03*
X45207Y81930D03*
D15*
X111288Y127815D02*
X111288Y129325D01*
X118298Y129325D01*
X118298Y127815D01*
X111288Y127815D01*
X118298Y124325D02*
X118298Y122815D01*
X111288Y122815D01*
X111288Y124325D01*
X118298Y124325D01*
X118298Y119325D02*
X118298Y117815D01*
X111288Y117815D01*
X111288Y119325D01*
X118298Y119325D01*
X118298Y114325D02*
X118298Y112815D01*
X111288Y112815D01*
X111288Y114325D01*
X118298Y114325D01*
X118298Y109325D02*
X118298Y107815D01*
X111288Y107815D01*
X111288Y109325D01*
X118298Y109325D01*
X118298Y104325D02*
X118298Y102815D01*
X111288Y102815D01*
X111288Y104325D01*
X118298Y104325D01*
X118298Y99325D02*
X118298Y97815D01*
X111288Y97815D01*
X111288Y99325D01*
X118298Y99325D01*
X118298Y94325D02*
X118298Y92815D01*
X111288Y92815D01*
X111288Y94325D01*
X118298Y94325D01*
X121038Y90075D02*
X122548Y90075D01*
X122548Y83065D01*
X121038Y83065D01*
X121038Y90075D01*
X121038Y86411D02*
X122548Y86411D01*
X122548Y89757D02*
X121038Y89757D01*
X126038Y90075D02*
X127548Y90075D01*
X127548Y83065D01*
X126038Y83065D01*
X126038Y90075D01*
X126038Y86411D02*
X127548Y86411D01*
X127548Y89757D02*
X126038Y89757D01*
X131038Y90075D02*
X132548Y90075D01*
X132548Y83065D01*
X131038Y83065D01*
X131038Y90075D01*
X131038Y86411D02*
X132548Y86411D01*
X132548Y89757D02*
X131038Y89757D01*
X136038Y90075D02*
X137548Y90075D01*
X137548Y83065D01*
X136038Y83065D01*
X136038Y90075D01*
X136038Y86411D02*
X137548Y86411D01*
X137548Y89757D02*
X136038Y89757D01*
X141038Y90075D02*
X142548Y90075D01*
X142548Y83065D01*
X141038Y83065D01*
X141038Y90075D01*
X141038Y86411D02*
X142548Y86411D01*
X142548Y89757D02*
X141038Y89757D01*
X146038Y90075D02*
X147548Y90075D01*
X147548Y83065D01*
X146038Y83065D01*
X146038Y90075D01*
X146038Y86411D02*
X147548Y86411D01*
X147548Y89757D02*
X146038Y89757D01*
X151038Y90075D02*
X152548Y90075D01*
X152548Y83065D01*
X151038Y83065D01*
X151038Y90075D01*
X151038Y86411D02*
X152548Y86411D01*
X152548Y89757D02*
X151038Y89757D01*
X156038Y90075D02*
X157548Y90075D01*
X157548Y83065D01*
X156038Y83065D01*
X156038Y90075D01*
X156038Y86411D02*
X157548Y86411D01*
X157548Y89757D02*
X156038Y89757D01*
X160288Y92815D02*
X160288Y94325D01*
X167298Y94325D01*
X167298Y92815D01*
X160288Y92815D01*
X160288Y97815D02*
X160288Y99325D01*
X167298Y99325D01*
X167298Y97815D01*
X160288Y97815D01*
X160288Y102815D02*
X160288Y104325D01*
X167298Y104325D01*
X167298Y102815D01*
X160288Y102815D01*
X160288Y107815D02*
X160288Y109325D01*
X167298Y109325D01*
X167298Y107815D01*
X160288Y107815D01*
X160288Y112815D02*
X160288Y114325D01*
X167298Y114325D01*
X167298Y112815D01*
X160288Y112815D01*
X160288Y117815D02*
X160288Y119325D01*
X167298Y119325D01*
X167298Y117815D01*
X160288Y117815D01*
X160288Y122815D02*
X160288Y124325D01*
X167298Y124325D01*
X167298Y122815D01*
X160288Y122815D01*
X160288Y127815D02*
X160288Y129325D01*
X167298Y129325D01*
X167298Y127815D01*
X160288Y127815D01*
X157548Y132065D02*
X156038Y132065D01*
X156038Y139075D01*
X157548Y139075D01*
X157548Y132065D01*
X157548Y135411D02*
X156038Y135411D01*
X156038Y138757D02*
X157548Y138757D01*
X152548Y132065D02*
X151038Y132065D01*
X151038Y139075D01*
X152548Y139075D01*
X152548Y132065D01*
X152548Y135411D02*
X151038Y135411D01*
X151038Y138757D02*
X152548Y138757D01*
X147548Y132065D02*
X146038Y132065D01*
X146038Y139075D01*
X147548Y139075D01*
X147548Y132065D01*
X147548Y135411D02*
X146038Y135411D01*
X146038Y138757D02*
X147548Y138757D01*
X142548Y132065D02*
X141038Y132065D01*
X141038Y139075D01*
X142548Y139075D01*
X142548Y132065D01*
X142548Y135411D02*
X141038Y135411D01*
X141038Y138757D02*
X142548Y138757D01*
X137548Y132065D02*
X136038Y132065D01*
X136038Y139075D01*
X137548Y139075D01*
X137548Y132065D01*
X137548Y135411D02*
X136038Y135411D01*
X136038Y138757D02*
X137548Y138757D01*
X132548Y132065D02*
X131038Y132065D01*
X131038Y139075D01*
X132548Y139075D01*
X132548Y132065D01*
X132548Y135411D02*
X131038Y135411D01*
X131038Y138757D02*
X132548Y138757D01*
X127548Y132065D02*
X126038Y132065D01*
X126038Y139075D01*
X127548Y139075D01*
X127548Y132065D01*
X127548Y135411D02*
X126038Y135411D01*
X126038Y138757D02*
X127548Y138757D01*
X122548Y132065D02*
X121038Y132065D01*
X121038Y139075D01*
X122548Y139075D01*
X122548Y132065D01*
X122548Y135411D02*
X121038Y135411D01*
X121038Y138757D02*
X122548Y138757D01*
D16*
X139293Y111070D03*
D17*
X129293Y121070D03*
X139293Y121070D03*
X149293Y121070D03*
X129293Y111070D03*
X139293Y111070D03*
X149293Y111070D03*
X129293Y101070D03*
X139293Y101070D03*
X149293Y101070D03*
D18*
X269427Y130439D03*
X269427Y102439D03*
D19*
X45100Y198000D03*
D20*
X19700Y198000D03*
D19*
X70500Y198000D03*
X95900Y198000D03*
X121300Y198000D03*
X146700Y198000D03*
X172100Y198000D03*
X197500Y198000D03*
X222900Y198000D03*
X248300Y198000D03*
X45170Y20210D03*
D20*
X19770Y20210D03*
D19*
X70570Y20210D03*
X95970Y20210D03*
X121370Y20210D03*
X146770Y20210D03*
X172170Y20210D03*
X197570Y20210D03*
X222970Y20210D03*
X248370Y20210D03*
D21*
X67293Y83070D03*
X46293Y155070D03*
X73293Y131070D03*
X163293Y173320D03*
X201293Y135320D03*
X200293Y124070D03*
X77293Y164070D03*
X211793Y140570D03*
X195293Y176320D03*
X179293Y173320D03*
X57293Y165070D03*
X111293Y64070D03*
X206293Y92070D03*
X201293Y110070D03*
X116293Y166070D03*
X96293Y172070D03*
X220293Y174070D03*
X179293Y85070D03*
X206293Y64070D03*
X178293Y64070D03*
X108293Y144070D03*
X111293Y74070D03*
X96293Y160070D03*
X152543Y152820D03*
M02*
